<svg
  width="1366"
  height="1366"
  viewBox="0 0 1366 1366"
  fill="none"
  xmlns="http://www.w3.org/2000/svg"
>
  <path
    d="M269.84 210.093C277.147 206.973 284.494 212.333 288.854 217.866C290.734 221 293.587 224.506 292.294 228.386C288.654 248.133 286.534 268.093 284.614 288.08C282.494 301.746 283.214 315.626 282.187 329.386C281.36 353.333 280.174 377.306 281.454 401.266C282.734 421.506 284.6 441.693 285.787 461.946C287.267 472.826 287.12 483.906 289.334 494.68C294.76 524.706 299.494 554.906 307.8 584.306C311.16 598.106 315.52 611.626 319.56 625.226C321.88 635.36 325.96 644.96 329.054 654.866C332.294 665.4 336.494 675.613 340.694 685.8C344.867 697.32 349.867 708.533 354.974 719.666C361.347 729.866 364.747 741.507 370.507 752.04C378.627 769.973 389.6 786.386 399.107 803.573C409.2 818.76 418.56 834.453 429.92 848.746C438.187 859.186 445.667 870.226 454.294 880.4C469.08 900.48 486.893 918.053 503.36 936.746C516.293 949.12 529.72 960.986 542.587 973.426C546.827 977.2 551.427 980.533 556.027 983.853C566.027 991.146 574.694 1000.33 585.8 1006.05C591.907 1009.84 597.334 1014.76 604.24 1017.19C613.28 1024.19 623.627 1029.09 633.68 1034.44C641.92 1038.92 651.214 1040.95 659.294 1045.73C679.867 1054.01 701.28 1059.97 722.614 1065.99C732.427 1067.45 742.107 1069.69 751.854 1071.48C761.707 1071.43 771.373 1073.75 781.213 1073.88C787.027 1073.07 792.84 1074.4 798.667 1073.96C808.48 1073.37 818.334 1074.45 828.08 1072.85C851.894 1071.47 875.347 1066.97 898.494 1061.33C915.867 1056.32 933.414 1051.72 950.28 1045.16C965.64 1039.89 980.094 1032.44 994.587 1025.21C1021.47 1011.19 1047.21 994.36 1068.75 972.866C1080.48 962.786 1091.21 951.613 1101.6 940.16C1109.17 932.213 1116.93 924.426 1124.19 916.173C1145.63 887.586 1165.56 857.667 1181.28 825.52C1185.28 817.333 1189.64 809.32 1193.01 800.867C1196.37 794 1200.17 787.333 1202.37 779.973C1210.56 759.346 1217.28 738.2 1223.95 717.053C1227.48 702.813 1231.01 688.546 1234.19 674.226C1235.75 659.666 1239.08 645.346 1239.96 630.72C1242.01 617.906 1243.24 604.933 1243 591.946C1242.75 576.48 1243.91 560.933 1241.81 545.546C1240.8 535.266 1239.89 524.973 1239.84 514.64C1239.87 509.2 1237.99 504.053 1237.16 498.746C1236.2 488.973 1228.73 481.813 1222.63 474.8C1216.53 470.08 1212.29 462.8 1212.47 454.96C1213.25 452.6 1216.28 451.426 1218.61 451.773C1227.59 453.373 1236.64 454.72 1245.47 457.053C1252.27 458.373 1260.89 459.333 1263.88 466.706C1267.27 476.28 1268.77 486.4 1271.12 496.24C1272.09 504.64 1271.37 513.133 1272.31 521.546C1273.53 532.133 1272.64 542.826 1273.79 553.413C1276.31 579.906 1279 606.68 1275.67 633.213C1274.71 656.573 1273.4 680.146 1267.35 702.826C1259.73 747.186 1243.15 789.28 1227.05 831.093C1216.95 851.906 1207.05 872.866 1195.92 893.173C1190.83 902.893 1183.4 911.106 1177.73 920.48C1169.67 933.8 1160.39 946.373 1149.93 957.92C1142.11 966.173 1135.64 975.546 1127.85 983.813C1121.47 992.48 1112.84 999.053 1105.55 1006.91C1095.59 1017.51 1083.52 1025.73 1072.56 1035.2C1065.87 1041.77 1057.51 1046.13 1049.81 1051.35C1045.45 1054.11 1041.12 1056.92 1036.63 1059.48C1026.6 1065.29 1017.61 1072.84 1007.04 1077.72C999.027 1082.29 990.52 1085.88 982.4 1090.24C968.32 1096.79 953.6 1101.8 938.973 1106.96C928.92 1110.69 918.347 1112.56 908.213 1116C893.587 1121.47 878.413 1125.37 863.213 1128.88C848.76 1132.79 833.587 1132.01 818.92 1134.72C809.574 1136.33 799.987 1135.39 790.694 1137.37C784.454 1139.09 778.24 1136.45 771.973 1136.72C763.493 1137.05 755.04 1135.92 746.574 1136.44C738.134 1136.92 729.747 1135.44 721.32 1135.35C714.534 1135.35 707.973 1133.39 701.213 1133.24C686.907 1132.17 672.934 1128.68 658.787 1126.44C635.84 1120.29 613.027 1113.57 590.72 1105.4C581.24 1102.01 571.454 1099.59 561.76 1096.93C534.374 1088.17 507.414 1078.19 480.854 1067.24C459.387 1056.23 439.32 1042.76 418.2 1031.13C399.84 1021.07 383.24 1008.2 365.227 997.586C350.534 989.12 337.227 978.586 323.854 968.226C313.48 959.906 304.32 950.213 294.04 941.8C273.374 923.813 255.36 903.08 237.76 882.16C217.414 855.813 195.814 830.346 177.8 802.306C168.36 789.12 161.48 774.347 152.654 760.787C147.32 750.227 140.747 740.373 135.24 729.92C130.454 720.28 125.987 710.48 122.094 700.44C114.774 683.133 106.387 666.186 101.334 648.013C99.8268 642.506 98.2935 637.026 96.6935 631.56C93.1602 613.186 86.9468 595.346 84.7602 576.72C82.4402 566.426 82.3602 555.813 81.4268 545.346C79.7202 528.506 79.1735 511.493 80.5068 494.613C81.2802 460.933 85.2802 427.373 91.7735 394.333C95.0135 382.88 97.2002 371.16 99.7735 359.56C103.707 348.666 107.6 337.453 114.774 328.186C124.267 314.36 135.734 302.093 147.894 290.6C166.28 270.48 188 253.773 210.427 238.453C229.294 227.2 248.707 216.453 269.84 210.093Z"
    fill="black"
  />
  <path
    d="M364.453 228.813C374.413 227.226 384.133 230.773 393.959 231.773C402.133 232.546 410.053 234.826 418.026 236.693C433.999 239.399 449.786 243.159 465.453 247.333C479.026 250.639 492.679 253.706 506.026 257.919C515.253 259.466 524.039 262.733 533.026 265.239C544.813 268.119 556.24 272.306 567.8 275.959C576.266 279.666 586.88 285.426 586.8 296.053C583.386 309.253 580.439 322.599 577.066 335.826C575.079 344.919 574.56 354.773 569.52 362.879C566.093 368.159 559.239 368.919 553.493 368.919C524.626 366.546 498.013 353.586 469.413 349.799C463.599 349.079 457.066 351.279 454.079 356.573C452.373 360.106 453.093 364.173 453.119 367.959C453.826 379.546 453.773 391.159 454.493 402.746C454.773 407.986 456.959 414.4 462.813 415.506C476.986 418.106 491.253 414.493 505.319 412.813C513.306 411.093 521.426 410.08 529.386 408.253C533.88 407.893 539.346 406.92 542.88 410.466C547.6 414.373 548.133 420.92 548.76 426.586C549.533 440.453 548.653 454.386 546.546 468.106C546.173 474.453 542.906 480.786 537.306 484.026C532.453 486.746 527.013 488.159 521.653 489.533C513.919 491.466 505.839 490.733 498.093 492.56C489.466 494.28 480.559 492.373 471.946 494.119C466.386 495.439 460.999 500.56 462.253 506.72C464.853 518.493 467.359 530.306 470.079 542.053C471.799 545.946 475.373 549.893 479.946 549.826C485.906 549.773 491.666 548.013 497.253 546.093C512.773 540.653 527.906 534.186 543.359 528.56C550.879 525.853 558.386 521.466 566.68 522.653C573.986 523.653 579.2 530.493 579.8 537.6C582.32 560.28 587.4 582.613 589.466 605.346C589.8 611.359 585.866 616.746 580.786 619.586C573.546 623.773 565.373 625.973 557.466 628.506C541.16 632.759 525.639 639.426 509.573 644.413C493.706 649.826 478.333 656.506 462.733 662.613C450.279 667.333 438.533 674.239 425.333 676.746C415.479 678.386 407.146 670.053 403.733 661.573C394.839 635.413 383.759 609.959 377.079 583.079C370.826 563.226 367.519 542.64 363.133 522.333C361.039 508.719 357.826 495.279 356.533 481.533C353.733 465.613 351.466 449.56 351.079 433.386C350.306 423.586 349.026 413.813 348.839 403.973C348.413 385.293 347.173 366.626 347.213 347.933C347.066 335.92 349.053 323.999 348.946 311.986C348.986 297.693 351.533 283.599 351.906 269.333C353.186 259.199 351.986 248.746 355.066 238.866C356.253 234.266 359.519 229.693 364.453 228.813Z"
    fill="black"
  />
  <path
    d="M609.186 302.641C611.439 298.841 615.772 296.761 619.986 296.001C628.052 294.454 635.759 298.227 643.666 299.147C667.359 304.787 691.159 310.001 714.719 316.161C745.092 324.334 775.639 331.974 805.759 341.081C813.012 343.934 821.599 344.254 827.359 350.094C831.319 354.214 835.186 359.374 834.946 365.387C835.039 374.641 833.386 383.841 831.386 392.827C821.946 409.441 809.572 424.147 797.212 438.641C786.359 449.987 776.332 462.227 764.092 472.161C754.852 479.761 747.012 488.841 739.092 497.747C735.186 502.014 731.106 507.827 733.826 513.801C735.492 514.827 737.132 515.881 738.786 516.961C742.439 515.641 746.186 514.361 749.332 512.014C765.159 500.014 782.346 489.974 798.492 478.427C803.732 474.574 809.386 471.321 815.266 468.547C823.412 464.547 831.892 459.521 841.359 460.854C844.572 460.881 848.226 463.067 848.412 466.547C848.732 471.001 844.892 474.001 842.386 477.147C832.519 487.801 825.399 500.734 814.679 510.641C803.706 521.507 792.692 532.334 780.879 542.281C773.159 549.401 764.719 555.814 755.439 560.747C745.172 565.294 734.972 569.961 724.506 574.027C706.066 582.561 687.079 589.841 668.532 598.174C656.986 601.761 645.786 606.347 634.559 610.827C628.599 613.294 621.439 613.774 615.559 610.854C610.812 608.174 608.772 602.747 607.026 597.907C603.319 586.747 600.132 575.401 597.612 563.921C596.892 558.161 594.639 552.601 595.132 546.721C595.079 540.801 596.372 535.027 597.519 529.267C603.479 521.494 608.519 512.987 615.426 505.974C622.959 497.934 629.652 489.161 637.399 481.334C647.999 470.587 656.972 458.387 667.546 447.614C681.546 433.161 694.532 417.721 709.359 404.067C711.972 401.681 714.106 398.814 715.839 395.734C710.346 391.121 702.799 392.494 696.252 391.067C687.426 389.041 678.332 389.094 669.412 387.694C660.559 386.414 651.452 387.481 642.759 385.107C632.906 383.761 623.012 382.667 613.212 380.947C606.732 379.494 599.919 375.801 597.466 369.281C596.332 362.961 599.079 356.934 599.706 350.747C600.706 342.854 602.306 335.067 603.559 327.227C605.292 319.001 605.346 310.281 609.186 302.641Z"
    fill="black"
  />
  <path
    d="M915.319 387.654C923.479 385.04 932.212 386.627 940.279 388.84C967.385 394.107 994.345 400.04 1021.03 407.16C1034.21 409.48 1047.04 413.454 1060.16 416.16C1076.79 420.507 1093.75 423.52 1110.16 428.707C1128.67 432.667 1146.61 438.72 1164.89 443.56C1172.85 445.56 1179.31 453.067 1179.07 461.454C1179.47 476.707 1179.51 492.054 1177.47 507.2C1175.76 513.6 1176.85 520.76 1173.2 526.56C1170.24 531.68 1165.45 537.574 1158.8 536.494C1151.77 535.347 1145.36 531.947 1138.89 529.134C1128.64 523.48 1116.87 521.587 1106.45 516.28C1101.93 514.494 1097.39 511.227 1092.31 512.36C1089.55 513.574 1087.76 516.96 1089.24 519.84C1097.27 538.28 1106.92 556.014 1117.89 572.867C1125.64 586.08 1132.91 599.574 1140.43 612.92C1150.19 632.774 1161.72 651.734 1170.15 672.227C1173.97 681.734 1180.63 691.867 1177.03 702.454C1173.28 717.467 1164.81 730.654 1157.16 743.92C1150.28 754.654 1144.67 766.56 1135.08 775.254C1130.6 778.747 1122.71 781.454 1118.61 776.027C1110.57 765.907 1108.87 752.64 1104.83 740.734C1097.28 719.32 1089.64 697.934 1082.29 676.454C1077.09 662.76 1073.4 648.547 1067.72 635.027C1063.71 622.267 1058.13 610.08 1052.61 597.907C1042.49 577.947 1032.65 557.827 1021.91 538.187C1016.31 527.227 1011.37 515.64 1003.12 506.347C1000.39 503.16 996.319 500.267 991.905 501.174C985.985 502.4 982.105 507.494 977.465 510.92C970.705 516.067 965.172 522.774 957.759 527.054C954.772 528.867 950.572 529.267 948.012 526.534C943.452 522.214 939.879 516.987 935.839 512.2C926.332 500 914.225 490.16 904.612 478.054C894.465 463.494 888.505 445.534 890.412 427.68C892.759 417.414 897.452 407.787 902.572 398.627C905.332 393.56 910.092 389.894 915.319 387.654Z"
    fill="black"
  />
  <path
    d="M884.439 486.266C892.706 483.599 899.919 490.946 904.386 497.039C912.399 509.999 921.999 521.866 931.159 534.026C939.599 544.599 951.452 553.013 956.439 565.986C957.212 574.786 953.332 583.719 947.292 590.053C942.412 594.959 935.226 598.959 928.172 596.519C919.479 593.479 911.586 588.306 902.559 586.213C896.959 585.226 890.306 585.853 886.306 590.333C881.066 596.773 881.172 606.959 886.679 613.199C889.559 616.346 893.439 618.266 897.226 620.066C904.879 623.479 911.772 628.453 919.812 631.013C933.586 635.666 947.519 639.839 961.586 643.519C971.332 646.399 980.492 650.946 990.092 654.266C999.399 657.373 1008.25 662.026 1015.89 668.239C1035.39 682.093 1049.36 701.999 1062.31 721.773C1065.95 727.933 1071.61 732.986 1072.97 740.306C1080.01 758.506 1083.87 777.866 1084.35 797.386C1084.24 807.413 1081.83 817.199 1078.71 826.666C1072.97 845.386 1060.28 860.986 1046.28 874.239C1029.17 889.946 1008.43 901.039 986.986 909.573C977.692 913.706 966.332 916.253 956.959 911.026C947.292 905.093 941.732 894.853 935.599 885.706C919.519 862.733 904.959 838.519 894.319 812.533C890.092 803.186 884.172 793.439 886.052 782.759C887.666 776.213 892.919 771.466 897.559 766.906C903.852 761.093 911.066 755.066 919.946 754.266C928.452 754.199 934.586 761.066 939.319 767.306C945.852 776.333 953.639 784.826 963.746 789.906C969.599 793.173 977.079 792.773 982.852 789.493C988.239 786.733 994.279 782.586 994.959 776.053C996.679 765.959 991.586 756.399 986.346 748.173C973.426 730.106 951.906 721.639 931.839 714.159C911.906 706.186 891.359 699.786 871.719 691.106C859.359 685.266 846.572 679.599 836.426 670.199C828.172 663.213 820.439 655.266 815.572 645.506C808.492 634.373 803.879 621.866 800.212 609.253C797.759 598.386 796.559 586.826 799.559 575.959C801.159 569.293 802.679 562.519 805.866 556.399C810.186 547.786 816.239 540.239 821.732 532.373C831.706 520.466 844.012 510.786 856.492 501.653C864.826 494.999 874.066 489.119 884.439 486.266Z"
    fill="black"
  />
  <path
    d="M756.719 587.878C764.132 586.304 772.292 589.184 776.946 595.198C780.559 599.851 781.772 605.744 783.946 611.118C787.959 621.384 791.466 631.838 795.266 642.184C796.706 645.958 797.586 650.131 796.572 654.144C795.186 658.451 791.666 661.718 787.879 664.011C775.666 671.251 762.266 676.104 749.106 681.278C743.786 683.438 736.866 684.678 734.626 690.771C732.452 694.584 735.399 698.571 736.506 702.238C740.479 711.718 742.719 721.904 747.359 731.104C749.226 735.118 753.652 737.611 758.052 736.571C768.639 734.731 777.986 728.784 786.812 722.931C793.252 718.704 799.092 710.824 807.759 712.638C814.452 714.558 817.879 721.411 820.759 727.198C826.239 739.984 831.372 753.051 834.586 766.624C836.546 775.944 830.599 785.064 822.666 789.491C812.532 795.064 801.399 798.411 790.639 802.491C786.732 804.011 782.452 806.411 781.252 810.731C780.386 814.478 782.159 818.118 783.372 821.571C788.132 833.464 791.719 845.771 796.732 857.571C798.799 862.464 800.719 869.131 806.772 870.224C815.066 871.024 822.746 866.784 829.812 862.984C836.932 859.144 843.719 854.718 850.799 850.798C859.786 845.611 868.132 839.158 877.892 835.424C885.426 832.611 893.599 838.144 896.252 845.184C906.612 868.464 916.279 892.064 927.506 914.958C929.692 919.438 931.639 924.411 930.626 929.491C929.612 937.811 922.986 944.078 916.012 947.971C908.439 951.931 901.599 957.184 893.772 960.678C867.986 972.158 840.666 979.718 813.172 985.851C802.639 987.571 792.132 990.384 781.372 990.038C775.719 989.864 769.839 987.584 766.532 982.798C763.799 978.704 761.986 974.078 760.199 969.518C736.146 905.891 712.106 842.264 688.479 778.478C679.826 754.198 671.786 729.704 662.666 705.598C659.999 695.344 656.079 685.491 652.772 675.438C649.546 666.464 645.572 657.544 644.839 647.918C644.359 641.864 647.519 635.838 652.506 632.464C657.999 628.558 664.226 625.784 670.452 623.251C693.106 616.478 714.199 605.544 735.746 595.971C742.586 592.931 749.266 589.211 756.719 587.878Z"
    fill="black"
  />
  <path
    d="M559.372 655.88C572.719 652.48 585.692 658.44 597.612 663.773C602.572 666.253 608.172 667.786 612.226 671.786C617.519 676.706 623.519 680.853 628.399 686.213C644.826 706.093 656.412 730.346 659.186 756.133C661.679 766.146 661.932 776.533 661.039 786.787C658.839 799.453 653.532 811.56 646.012 821.973C644.692 823.786 645.759 826.107 646.839 827.773C651.212 834.533 655.599 841.293 659.972 848.066C667.559 862.293 677.306 875.213 685.626 889C689.492 895.653 694.079 901.827 698.492 908.107C709.679 924.827 721.439 941.16 733.519 957.253C738.492 964.346 744.359 970.88 748.399 978.6C751.346 984.253 746.386 991.586 740.226 991.626C725.839 993.066 711.439 990.76 697.266 988.546C682.652 984.653 666.399 982.56 654.879 971.867C648.012 962.8 642.719 952.666 637.306 942.72C623.959 919.946 611.986 896.4 600.746 872.546C598.959 869.226 597.199 865.066 593.186 864.066C589.346 864.08 586.452 867.413 584.772 870.533C587.879 881.627 593.346 891.893 596.839 902.867C599.159 911.147 603.119 919.267 602.319 928.107C602.386 932.627 597.626 935.986 593.386 935.64C588.652 935.253 584.212 933.107 580.532 930.2C564.279 916.227 546.239 904.133 531.972 887.96C527.719 883.16 524.759 877.44 521.412 872.027C497.212 837.107 475.826 800.173 458.479 761.373C454.012 750.733 448.959 740.36 444.906 729.546C441.546 721.386 441.986 712.333 442.506 703.707C443.012 694.827 451.732 690.333 458.772 686.933C474.012 681.347 489.426 676.186 504.999 671.613C522.852 665.493 541.066 660.453 559.372 655.88ZM554.172 731.853C547.959 732.973 541.652 735.32 536.879 739.546C533.666 743.853 536.466 749.36 538.332 753.653C542.492 762.173 545.252 771.306 549.772 779.653C552.906 785.52 554.639 792.093 558.359 797.653C559.972 800.293 563.572 801.2 566.346 799.853C572.012 797.387 577.359 794.04 582.119 790.08C590.346 783.173 593.292 771.36 590.719 761.12C588.626 752.547 585.172 743.626 578.212 737.826C571.692 732.066 562.572 730.467 554.172 731.853Z"
    fill="black"
  />
</svg>
